<svg width="24" height="18" viewBox="0 0 24 18" fill="none" xmlns="http://www.w3.org/2000/svg">
<path d="M21.9824 0.5L22.1309 0.511719C22.4737 0.556423 22.7936 0.713531 23.04 0.959961C23.2865 1.20639 23.4436 1.5263 23.4883 1.86914L23.5 2.01758V15.9814C23.4696 16.8097 22.8097 17.4696 21.9814 17.5H2.01855C1.24203 17.4715 0.613243 16.8899 0.512695 16.1348L0.5 15.9814V2.01855C0.528496 1.24203 1.1101 0.613243 1.86523 0.512695L2.01855 0.5H21.9824ZM1.5 16.5H22.5V1.5H1.5V16.5ZM9 10.75C9.76714 10.75 10.9539 10.9483 11.9365 11.3418C12.4274 11.5384 12.8357 11.7717 13.1133 12.0273C13.3876 12.2799 13.5 12.5194 13.5 12.75V13.5H4.5V12.75C4.5 12.5194 4.61241 12.2799 4.88672 12.0273C5.16434 11.7717 5.5726 11.5384 6.06348 11.3418C7.04609 10.9483 8.23286 10.75 9 10.75ZM9 4.5C9.26264 4.5 9.52297 4.55183 9.76562 4.65234C10.0082 4.75285 10.2284 4.90029 10.4141 5.08594C10.5997 5.27159 10.7471 5.49183 10.8477 5.73438C10.9482 5.97703 11 6.23736 11 6.5L10.9902 6.69629C10.971 6.8916 10.923 7.08365 10.8477 7.26562C10.7471 7.50817 10.5997 7.72841 10.4141 7.91406C10.2284 8.09971 10.0082 8.24715 9.76562 8.34766C9.52297 8.44817 9.26264 8.5 9 8.5L8.80273 8.49023C8.34474 8.44485 7.91422 8.24235 7.58594 7.91406C7.40029 7.72841 7.25285 7.50817 7.15234 7.26562C7.05183 7.02297 7 6.76264 7 6.5L7.00977 6.30273C7.05515 5.84474 7.25765 5.41422 7.58594 5.08594C7.96101 4.71086 8.46957 4.5 9 4.5Z" stroke="#DED27C"/>
</svg>
